<mxfile host="app.diagrams.net" modified="2023-08-30T12:15:56.874Z" agent="Mozilla/5.0 (Windows NT 10.0; Win64; x64) AppleWebKit/537.36 (KHTML, like Gecko) Chrome/116.0.0.0 Safari/537.36" version="21.6.9" etag="ILaFy7zlcVVlb9AvXlV1" type="github">
  <diagram name="Page-1" id="RGPIr1wrDUvihKfxkjkZ">
    <mxGraphModel>
      <root>
        <mxCell id="0" />
        <mxCell id="1" parent="0" />
      </root>
    </mxGraphModel>
  </diagram>
</mxfile>
